<?xml version="1.0" encoding="iso-8859-1"?>
<!-- Generator: Adobe Illustrator 19.0.0, SVG Export Plug-In . SVG Version: 6.00 Build 0)  -->
<svg version="1.1" id="Capa_1" xmlns="http://www.w3.org/2000/svg" xmlns:xlink="http://www.w3.org/1999/xlink" x="0px" y="0px"
	 viewBox="0 0 511.993 511.993" style="enable-background:new 0 0 511.993 511.993;" xml:space="preserve">
<linearGradient id="SVGID_1_" gradientUnits="userSpaceOnUse" x1="69.654" y1="448.2119" x2="416.1364" y2="101.7296" gradientTransform="matrix(1.0449 0 0 -1.0449 2.1993 543.3086)">
	<stop  offset="0" style="stop-color:#84CAFF"/>
	<stop  offset="1" style="stop-color:#00A6FF"/>
</linearGradient>
<circle style="fill:url(#SVGID_1_);" cx="255.996" cy="255.996" r="255.996"/>
<g>
	
		<linearGradient id="SVGID_2_" gradientUnits="userSpaceOnUse" x1="128.8952" y1="381.2372" x2="368.0352" y2="381.2372" gradientTransform="matrix(1.0449 0 0 -1.0449 2.1993 543.3086)">
		<stop  offset="0" style="stop-color:#FFFFFF"/>
		<stop  offset="1" style="stop-color:#E4E4E4"/>
	</linearGradient>
	<path style="fill:url(#SVGID_2_);" d="M161.794,159.663h-28.839c-4.813,0-8.751-3.938-8.751-8.751v-11.904
		c0-4.813,3.938-8.751,8.751-8.751h28.839c4.813,0,8.751,3.938,8.751,8.751v11.904C170.545,155.725,166.607,159.663,161.794,159.663
		z"/>
	
		<linearGradient id="SVGID_3_" gradientUnits="userSpaceOnUse" x1="128.8952" y1="381.2372" x2="368.0352" y2="381.2372" gradientTransform="matrix(1.0449 0 0 -1.0449 2.1993 543.3086)">
		<stop  offset="0" style="stop-color:#FFFFFF"/>
		<stop  offset="1" style="stop-color:#E4E4E4"/>
	</linearGradient>
	<path style="fill:url(#SVGID_3_);" d="M379.045,159.663h-28.839c-4.813,0-8.751-3.938-8.751-8.751v-11.904
		c0-4.813,3.938-8.751,8.751-8.751h28.839c4.813,0,8.751,3.938,8.751,8.751v11.904C387.796,155.725,383.858,159.663,379.045,159.663
		z"/>
	
		<linearGradient id="SVGID_4_" gradientUnits="userSpaceOnUse" x1="128.8952" y1="406.7247" x2="368.0352" y2="406.7247" gradientTransform="matrix(1.0449 0 0 -1.0449 2.1993 543.3086)">
		<stop  offset="0" style="stop-color:#FFFFFF"/>
		<stop  offset="1" style="stop-color:#E4E4E4"/>
	</linearGradient>
	<path style="fill:url(#SVGID_4_);" d="M293.53,85.162h-75.058c-15.666,0-28.41,12.745-28.41,28.41v37.923h23.411v-37.923
		c0-2.757,2.242-5,5-5h75.058c2.757,0,5,2.242,5,5v37.923h23.411v-37.923C321.94,97.907,309.194,85.162,293.53,85.162z"/>
</g>
<linearGradient id="SVGID_5_" gradientUnits="userSpaceOnUse" x1="128.8952" y1="254.2697" x2="368.0352" y2="254.2697" gradientTransform="matrix(1.0449 0 0 -1.0449 2.1993 543.3086)">
	<stop  offset="0" style="stop-color:#FF764C"/>
	<stop  offset="1" style="stop-color:#ED2400"/>
</linearGradient>
<path style="fill:url(#SVGID_5_);" d="M393.804,410.294H118.196c-20.889,0-37.98-17.091-37.98-37.98V182.939
	c0-20.889,17.091-37.98,37.98-37.98h275.608c20.889,0,37.98,17.091,37.98,37.98v189.375
	C431.784,393.203,414.693,410.294,393.804,410.294z"/>
<linearGradient id="SVGID_6_" gradientUnits="userSpaceOnUse" x1="128.8952" y1="254.2687" x2="368.0352" y2="254.2687" gradientTransform="matrix(1.0449 0 0 -1.0449 2.1993 543.3086)">
	<stop  offset="0" style="stop-color:#FFFFFF"/>
	<stop  offset="1" style="stop-color:#E4E4E4"/>
</linearGradient>
<polygon style="fill:url(#SVGID_6_);" points="332.463,254.405 279.222,254.405 279.222,201.164 232.778,201.164 232.778,254.405 
	179.537,254.405 179.537,300.849 232.778,300.849 232.778,354.091 279.222,354.091 279.222,300.849 332.463,300.849 "/>
<g>
</g>
<g>
</g>
<g>
</g>
<g>
</g>
<g>
</g>
<g>
</g>
<g>
</g>
<g>
</g>
<g>
</g>
<g>
</g>
<g>
</g>
<g>
</g>
<g>
</g>
<g>
</g>
<g>
</g>
</svg>
